<?xml version="1.0" encoding="UTF-8"?>
<svg id="Layer_2" data-name="Layer 2" xmlns="http://www.w3.org/2000/svg" xmlns:xlink="http://www.w3.org/1999/xlink" viewBox="0 0 626.79 852.6">
  <defs>
    <style>
      .cls-1 {
        fill: none;
      }

      .cls-1, .cls-2, .cls-3, .cls-4, .cls-5, .cls-6, .cls-7, .cls-8, .cls-9, .cls-10, .cls-11, .cls-12 {
        stroke-width: 0px;
      }

      .cls-2 {
        fill: url(#linear-gradient);
      }

      .cls-2, .cls-3, .cls-4, .cls-5, .cls-6 {
        fill-rule: evenodd;
      }

      .cls-3 {
        fill: url(#linear-gradient-3);
      }

      .cls-4 {
        fill: url(#linear-gradient-2);
      }

      .cls-5 {
        fill: url(#linear-gradient-4);
      }

      .cls-6, .cls-11 {
        fill: #143f6a;
      }

      .cls-7 {
        fill: url(#linear-gradient-8);
      }

      .cls-8 {
        fill: url(#linear-gradient-7);
      }

      .cls-9 {
        fill: url(#linear-gradient-5);
      }

      .cls-10 {
        fill: url(#linear-gradient-6);
      }

      .cls-12 {
        fill: #c1db7d;
      }
    </style>
    <linearGradient id="linear-gradient" x1="177" y1="188.43" x2="177" y2="673.78" gradientUnits="userSpaceOnUse">
      <stop offset=".18" stop-color="#154373"/>
      <stop offset=".8" stop-color="#c1db7d"/>
    </linearGradient>
    <linearGradient id="linear-gradient-2" x1="112.87" y1="188.43" x2="112.87" y2="673.78" xlink:href="#linear-gradient"/>
    <linearGradient id="linear-gradient-3" x1="449.8" x2="449.8" xlink:href="#linear-gradient"/>
    <linearGradient id="linear-gradient-4" x1="513.92" y1="188.43" x2="513.92" y2="673.78" xlink:href="#linear-gradient"/>
    <linearGradient id="linear-gradient-5" x1="434.99" y1="426.38" x2="434.99" y2="440.16" gradientUnits="userSpaceOnUse">
      <stop offset=".15" stop-color="#0094a8"/>
      <stop offset=".79" stop-color="#154373"/>
    </linearGradient>
    <linearGradient id="linear-gradient-6" x1="435.25" y1="437.56" x2="435.25" y2="440.11" xlink:href="#linear-gradient-5"/>
    <linearGradient id="linear-gradient-7" x1="313.4" y1="0" x2="313.4" y2="852.6" xlink:href="#linear-gradient-5"/>
    <linearGradient id="linear-gradient-8" x1="435.25" y1="437.56" x2="435.25" y2="440.12" xlink:href="#linear-gradient-5"/>
  </defs>
  <g id="Layer_1-2" data-name="Layer 1">
    <g>
      <g>
        <path class="cls-2" d="M266.62,200c-4.47-4.21-10.37-6.87-16.44-8.35-17.69-4.31-37.16,1.22-51,12.71-11.76,9.76-19.58,23.4-23.37,37.82-4.41,16.76-2.47,34.35.99,51.14,1.66,8.09,3.73,16.09,5.81,24.09-.31-1.19-8.72-3.26-9.84-3.55-3.83-1-7.8-1.49-11.77-1.38-6.58.18-16.44,2.68-18.91,9.52-.86,2.4-.27,5.07.9,7.27,1.04,1.95,2.56,3.46,4.74,4.2,2.75.93,5.64.74,8.17,2.32,3.25,2.03.33,6.95-2.15,8.29-2.89,1.56-6.25,1.55-9.44,1.91-5.69.63-11.17,1.98-15.89,5.23-6.84,4.7-11.42,11.98-16.17,18.51-4.08,5.6-8.49,10.89-13.75,15.51-3.68,3.23-7.8,5.81-12.36,7.73-.92.39-7.78,2.34-7.07,3.66.91,1.68,4.1,2.59,5.75,3.23,6.32,2.48,13.29,3.17,20.07,2.78,19.21-1.08,37.32-10.5,51.37-22.85,5.3-4.66,9.95-9.94,15.21-14.63,4.53-4.04,19.09-15.77,25.88-10.58,4.66,3.56-3.15,7.12-5.72,8.51-7.43,4.04-14.84,9.44-18.42,17.15-1.55,3.34-2.82,8.11.4,10.99,3.73,3.34,9.33-.37,12.54-2.55,8.76-5.96,16.56-13.67,26.66-17.56,6.47-2.49,13.5-3.6,20.45-3.26,6.47.31,14.53,4.49,20.84,2.67-8.09-8.83-17.12-16.79-25.3-25.53-8.49-9.07-15.4-19.46-21.44-30.19-9.68-17.21-17.51-37.51-14.75-57.33,2.21-15.86,10.32-31.93,26.04-38.88,1.44-.64,2.92-1.19,4.42-1.65,3.93-1.22,8.13-1.85,12.19-1.15,4.06.71,7.95,2.9,10.03,6.34,1.03,1.71,1.59,3.79,1.01,5.69-.58,1.9-2.53,3.46-4.57,3.22-2.81-.33-4.23-3.51-6.75-4.75-2.11-1.04-4.81-.51-6.66.93-1.85,1.44-2.93,3.63-3.44,5.87-1.58,7,2.38,14.58,8.74,18.27,6.36,3.68,14.61,3.67,21.39.78,6.78-2.89,12.14-8.41,15.62-14.74,6.29-11.45,6.1-26.81-2.97-36.37-.34-.36-.69-.7-1.05-1.04Z"/>
        <path class="cls-4" d="M155.61,567.93c-4.76-8.32-1.55-9.21.95-19.64,2.99-12.5-1.19-30.53-12.01-38.77-9.06-6.9-26.48-7.61-33.67,2.38-1.93,2.68-2.87,5.66-2.35,8.92.81,5.05,8.99,12.92,13.11,6.68,3.89-5.89-8.43-7.26,1.39-12.74,6.5-3.62,13.87,3.37,15.36,8.69,3.03,10.83-1.84,16.27-17.27,18.78-14.74,2.4-28.89-5.88-38.75-15.76-9.08-9.09-14.39-19.48-16.32-31.93-1.6-10.34-1.11-21.22,2.34-31.17,3.07-8.88,9.98-20.09,19.62-23.59,1-.36,3.43-1.18,6.24-1.68,1.37-.16,2.77-.3,3.72-.39,1.61-.05,3.2.09,4.6.56,20.64,6.92,19.06,24.39,9.63,31.53-4.62,3.5-19.32,5.92-18.68-5.17.13-2.25,1.8-2.98,4.31-2.17,1.79.58,3.3,1.03,5.11-.89.75-.8,1.07-1.92,1.06-2.98-.07-4.27-5.26-7.03-9.06-7.36-6.4-.55-10.71,3.96-12.07,8.52-7.11,23.83,18.62,32.43,33.57,29.22,14.89-3.2,25-13.74,20.1-29.15-2.4-7.57-7.87-11.89-6.64-20.58.31-2.18.86-4.19,2.18-6.02,2.98-4.13,9.28-7.81,13.35-2.47.47.61.88,1.28,1.07,2.03.13.53.15,1.07.08,1.61-.46,3.17-2.24-.35-5.14.43-4.4,1.18-4.16,7.2-1.24,9.74,4.82,4.2,11.97-1.18,15.32-4.57,7.63-7.72,12.65-25.56,11.53-36.12-.06-.61-2.01,1.91-2.41,2.26-1.74,1.52-3.7,2.77-5.77,3.82-4.41,2.24-9.33,3.67-14.2,4.6-5.47,1.04-10.54.54-16.05.37-11.76-.37-23.65.8-34.89,4.25-1.12.34-2.24.71-3.34,1.1-19.48,6.85-35.47,20.88-41.77,40.22-1.37,4.2-2.29,8.54-2.75,12.93-2.87,26.87,10.67,55.19,33.81,70.33,11.54,7.55,24.11,12.94,36.24,19.45,11,5.89,13.24,7.17,18.83,10.89.49.33,25.37,22.68,33.93,44.81,3.56,9.2,5.94,18.93,6.91,28.71.35,3.52.52,7.06.52,10.6,0,.27-.24,3.46.16,3.51.47.06,1.7-3.99,1.86-4.57,1.43-5.27,2.02-10.78,2.15-16.22.46-20.32-2.82-41.18-15.76-58.88l-8.87-14.1Z"/>
      </g>
      <g>
        <path class="cls-3" d="M360.17,200c4.47-4.21,10.37-6.87,16.44-8.35,17.69-4.31,37.16,1.22,51,12.71,11.76,9.76,19.58,23.4,23.37,37.82,4.41,16.76,2.47,34.35-.99,51.14-1.66,8.09-3.73,16.09-5.81,24.09.31-1.19,8.72-3.26,9.84-3.55,3.83-1,7.8-1.49,11.77-1.38,6.58.18,16.44,2.68,18.91,9.52.86,2.4.27,5.07-.9,7.27-1.04,1.95-2.56,3.46-4.74,4.2-2.75.93-5.64.74-8.17,2.32-3.25,2.03-.33,6.95,2.15,8.29,2.89,1.56,6.25,1.55,9.44,1.91,5.69.63,11.17,1.98,15.89,5.23,6.84,4.7,11.42,11.98,16.17,18.51,4.08,5.6,8.49,10.89,13.75,15.51,3.68,3.23,7.8,5.81,12.36,7.73.92.39,7.78,2.34,7.07,3.66-.91,1.68-4.1,2.59-5.75,3.23-6.32,2.48-13.29,3.17-20.07,2.78-19.21-1.08-37.32-10.5-51.37-22.85-5.3-4.66-9.95-9.94-15.21-14.63-4.53-4.04-19.09-15.77-25.88-10.58-4.66,3.56,3.15,7.12,5.72,8.51,7.43,4.04,14.84,9.44,18.42,17.15,1.55,3.34,2.82,8.11-.4,10.99-3.73,3.34-9.33-.37-12.54-2.55-8.76-5.96-16.56-13.67-26.66-17.56-6.47-2.49-13.5-3.6-20.45-3.26-6.47.31-14.53,4.49-20.84,2.67,8.09-8.83,17.12-16.79,25.3-25.53,8.49-9.07,15.4-19.46,21.44-30.19,9.68-17.21,17.51-37.51,14.75-57.33-2.21-15.86-10.32-31.93-26.04-38.88-1.44-.64-2.92-1.19-4.42-1.65-3.93-1.22-8.13-1.85-12.19-1.15-4.06.71-7.95,2.9-10.03,6.34-1.03,1.71-1.59,3.79-1.01,5.69.58,1.9,2.53,3.46,4.57,3.22,2.81-.33,4.23-3.51,6.75-4.75,2.11-1.04,4.81-.51,6.66.93,1.85,1.44,2.93,3.63,3.44,5.87,1.58,7-2.38,14.58-8.74,18.27-6.36,3.68-14.61,3.67-21.39.78-6.78-2.89-12.14-8.41-15.62-14.74-6.29-11.45-6.1-26.81,2.97-36.37.34-.36.69-.7,1.05-1.04Z"/>
        <path class="cls-5" d="M471.18,567.93c4.76-8.32,1.55-9.21-.95-19.64-2.99-12.5,1.19-30.53,12.01-38.77,9.06-6.9,26.48-7.61,33.67,2.38,1.93,2.68,2.87,5.66,2.35,8.92-.81,5.05-8.99,12.92-13.11,6.68-3.89-5.89,8.43-7.26-1.39-12.74-6.5-3.62-13.87,3.37-15.36,8.69-3.03,10.83,1.84,16.27,17.27,18.78,14.74,2.4,28.89-5.88,38.75-15.76,9.08-9.09,14.39-19.48,16.32-31.93,1.6-10.34,1.11-21.22-2.34-31.17-3.07-8.88-9.98-20.09-19.62-23.59-1-.36-3.43-1.18-6.24-1.68-1.37-.16-2.77-.3-3.72-.39-1.61-.05-3.2.09-4.6.56-20.64,6.92-19.06,24.39-9.63,31.53,4.62,3.5,19.32,5.92,18.68-5.17-.13-2.25-1.8-2.98-4.31-2.17-1.79.58-3.3,1.03-5.11-.89-.75-.8-1.07-1.92-1.06-2.98.07-4.27,5.26-7.03,9.06-7.36,6.4-.55,10.71,3.96,12.07,8.52,7.11,23.83-18.62,32.43-33.57,29.22-14.89-3.2-25-13.74-20.1-29.15,2.4-7.57,7.87-11.89,6.64-20.58-.31-2.18-.86-4.19-2.18-6.02-2.98-4.13-9.28-7.81-13.35-2.47-.47.61-.88,1.28-1.07,2.03-.13.53-.15,1.07-.08,1.61.46,3.17,2.24-.35,5.14.43,4.4,1.18,4.16,7.2,1.24,9.74-4.82,4.2-11.97-1.18-15.32-4.57-7.63-7.72-12.65-25.56-11.53-36.12.06-.61,2.01,1.91,2.41,2.26,1.74,1.52,3.7,2.77,5.77,3.82,4.41,2.24,9.33,3.67,14.2,4.6,5.47,1.04,10.54.54,16.05.37,11.76-.37,23.65.8,34.89,4.25,1.12.34,2.24.71,3.34,1.1,19.48,6.85,35.47,20.88,41.77,40.22,1.37,4.2,2.29,8.54,2.75,12.93,2.87,26.87-10.67,55.19-33.81,70.33-11.54,7.55-24.11,12.94-36.24,19.45-11,5.89-13.24,7.17-18.83,10.89-.49.33-25.37,22.68-33.93,44.81-3.56,9.2-5.94,18.93-6.91,28.71-.35,3.52-.52,7.06-.52,10.6,0,.27.24,3.46-.16,3.51-.47.06-1.7-3.99-1.86-4.57-1.43-5.27-2.02-10.78-2.15-16.22-.46-20.32,2.82-41.18,15.76-58.88l8.87-14.1Z"/>
      </g>
      <path class="cls-11" d="M302.1,285.82c-.05-.12-.12-.2-.21-.27-.25-.24-.65-.32-.99-.17-.28.13-.5.41-.54.72-.03.19-.01.55.4.87l.57-.68h.01l.32.69c.11-.05.2-.12.27-.19.15-.13.23-.29.24-.47l-.24-.04-.52-.08.49-.59s.01,0,.01.01c.12.09.29.35.25.69.05-.17.03-.35-.05-.5Z"/>
      <g>
        <path class="cls-6" d="M322.55,372.07c-.6-1.47-.93-3.06-.95-4.69-.03-1.88.37-3.71,1.14-5.39-.04,1.65-.07,3.3-.09,4.95-.03,1.7-.07,3.41-.09,5.12Z"/>
        <path class="cls-6" d="M342.67,403.35c-1.39,2.41-3.06,4.65-4.96,6.73-2.64,2.92-5.66,5.54-8.76,7.92-2.36,1.8-4.82,3.34-7.31,4.72-.01.46-.01.92-.03,1.38-.03,2-.07,3.99-.11,5.99-2.27,1.14-4.51,2.18-6.63,3.16-3.67,1.7-7.2,3.33-10.2,5.2-.03-1.11-.04-2.23-.07-3.34-.03-1.33-.05-2.66-.08-4.01-2.27,1.2-4.41,2.48-6.37,3.94-4.69,3.51-8.1,8.29-9.01,16.37-.25,2.21.97,5.61,2.5,8.86,1.64,3.43,3.7,6.73,5.54,8.33,1.67,1.4,1.86,3.84.41,5.45-1.44,1.61-3.96,1.79-5.63.4-2.96-2.36-6.64-7.63-9.08-12.88-1.88-4.06-2.89-8.13-2.7-10.93.57-8.09,3.18-13.84,6.88-18.36,3.79-4.62,8.87-7.9,14.47-10.92.91-.49,1.84-.97,2.8-1.46,5.72-2.94,11.89-5.89,17.33-10.43.07-.06.15-.12.21-.18h0c2-1.68,3.95-3.48,5.71-5.44,1.68-1.87,3.17-3.88,4.32-6.07,2.12-4.04,3.29-9.24,3.07-14.25-.17-4.39-1.5-8.68-4.69-11.58-2.72-2.56-2.77-6.76-.12-9.37,2.65-2.62,7-2.66,9.71-.12,4.49,4.44,7.06,10.25,7.81,16.56.98,8.38-1.11,17.55-5.02,24.3Z"/>
        <path class="cls-6" d="M342.67,403.35c-1.39,2.41-3.06,4.65-4.96,6.73-2.64,2.92-5.66,5.54-8.76,7.92-2.36,1.8-4.82,3.34-7.31,4.72-5.8,3.21-11.78,5.57-17.11,8.38-2.27,1.2-4.41,2.48-6.37,3.94-4.69,3.51-8.1,8.29-9.01,16.37-.25,2.21.97,5.61,2.5,8.86,1.64,3.43,3.7,6.73,5.54,8.33,1.67,1.4,1.86,3.84.41,5.45-1.44,1.61-3.96,1.79-5.63.4-2.96-2.36-6.64-7.63-9.08-12.88-1.88-4.06-2.89-8.13-2.7-10.93.57-8.09,3.18-13.84,6.88-18.36,3.79-4.62,8.87-7.9,14.47-10.92.91-.49,1.84-.97,2.8-1.46,5.72-2.94,11.89-5.89,17.33-10.43.07-.06.15-.12.21-.18h0c2-1.68,3.95-3.48,5.71-5.44,1.68-1.87,3.17-3.88,4.32-6.07,2.12-4.04,3.29-9.24,3.07-14.25-.17-4.39-1.5-8.68-4.69-11.58-2.72-2.56-2.77-6.76-.12-9.37,2.65-2.62,7-2.66,9.71-.12,4.49,4.44,7.06,10.25,7.81,16.56.98,8.38-1.11,17.55-5.02,24.3Z"/>
      </g>
      <g>
        <path class="cls-6" d="M320.42,490.46c-3.52-3.84-4.03-9.5-1.26-13.86.45-.72.97-1.36,1.55-1.95-.05,2.56-.09,5.12-.15,7.67-.04,2.71-.09,5.43-.15,8.14Z"/>
        <path class="cls-6" d="M335.54,510.34c-1.6,2.25-4.12,4.39-7.22,6.21-2.58,1.51-5.54,2.87-8.44,4.05-.01,1.16-.04,2.34-.07,3.51-.03,1.15-.04,2.32-.07,3.47-2.09.81-4.07,1.5-5.72,2.09l-.8.28c-3.79,1.34-5.74,2.78-6.82,4.22-.01-.52-.01-1.04-.03-1.56-.04-2.2-.08-4.4-.12-6.59-3.47,1.95-6.08,4.61-7.37,8.61-1.42,4.43-1.4,10.23.29,17.98.4,1.57-.61,3.16-2.25,3.53-1.63.38-3.27-.59-3.66-2.18-3.23-11.7-2.54-19.79.44-25.61,2.54-4.98,6.82-8.41,12.39-10.97.6-.28,1.21-.55,1.83-.81,3.26-1.34,7.92-3.19,12.12-5.47.46-.24.91-.5,1.36-.76,2.61-1.5,4.94-3.15,6.14-5.03,1.72-2.73,2.33-5.38,2.35-7.8.03-4.88-2.56-8.78-3.88-10.55-.2-.26-.41-.51-.54-.65-1.63-1.7-1.97-4.31-.66-6.39,1.59-2.5,4.97-3.28,7.54-1.74.04.03,1.19.76,2.44,2.55,1.59,2.3,4.62,7.37,5.15,13.72.4,4.8-.45,10.32-4.4,15.87Z"/>
        <path class="cls-6" d="M335.54,510.34c-1.6,2.25-4.12,4.39-7.22,6.21-2.58,1.51-5.54,2.87-8.44,4.05-3.27,1.34-6.45,2.46-8.93,3.33-1.7.6-3.27,1.28-4.69,2.09-3.47,1.95-6.08,4.61-7.37,8.61-1.42,4.43-1.4,10.23.29,17.98.4,1.57-.61,3.16-2.25,3.53-1.63.38-3.27-.59-3.66-2.18-3.23-11.7-2.54-19.79.44-25.61,2.54-4.98,6.82-8.41,12.39-10.97.6-.28,1.21-.55,1.83-.81,3.26-1.34,7.92-3.19,12.12-5.47.46-.24.91-.5,1.36-.76,2.61-1.5,4.94-3.15,6.14-5.03,1.72-2.73,2.33-5.38,2.35-7.8.03-4.88-2.56-8.78-3.88-10.55-.2-.26-.41-.51-.54-.65-1.63-1.7-1.97-4.31-.66-6.39,1.59-2.5,4.97-3.28,7.54-1.74.04.03,1.19.76,2.44,2.55,1.59,2.3,4.62,7.37,5.15,13.72.4,4.8-.45,10.32-4.4,15.87Z"/>
      </g>
      <path class="cls-6" d="M326.47,591.77c-2.41,2.71-5.13,4.61-7.99,6-2.57,1.25-5.23,2.1-7.91,2.79-.99.26-1.99.47-2.96.69-4.02.87-7.77,1.64-10.28,4.22-2,2.05-3.06,5.25-3.01,10.46.07,1.54-1.18,2.84-2.78,2.91-1.59.06-2.94-1.15-3.01-2.69-.5-7.35,1.23-11.84,3.91-14.9,3.11-3.56,7.82-5.16,12.99-6.68.68-.19,1.36-.4,2.05-.59h0c3.88-1.16,7.92-2.56,11.17-5.79h0c.48-.46.91-.96,1.34-1.5,5.33-6.71,3.62-11.9,2.12-14.27-.25-.4-.58-.79-.72-.95-.32-.31-.58-.67-.81-1.08-.58-1.1-.56-1.97-.52-2.43.16-2.37,1.52-3.61,3.43-4.15.53-.15,2.2-.72,4.16.67.07.05.29.19.58.47.01.03.07.06.13.14.03.03.08.06.15.14.11.13.33.38.62.78.87,1.2,2.6,3.8,3.27,7.48.86,4.62.41,11.07-5.95,18.27Z"/>
      <path class="cls-1" d="M338.8,282.7s.01-.02.03-.03"/>
      <path class="cls-6" d="M302.81,336.37c2.77,3.94,3.02,9.29.25,13.56-.07-3.85-.15-7.72-.21-11.58-.01-.65-.03-1.31-.04-1.97Z"/>
      <path class="cls-6" d="M380.87,295.05c-.01,3.28-.97,6.41-2.27,8.28-7.59,10.88-25.07,10.56-35.13,2.71-1.87-1.46-7.02-7.62-10.08-10.06-2.4-1.92-5.65-2.43-8.67-2.62-.25-.01-.5-.03-.76-.03-.04,2.12-.08,4.26-.12,6.39-1.14-.05-2.32-.06-3.34-.06h-2.78c-1.01.01-2.01,0-3.02-.03-.95-.03-1.95-.05-2.93-.05-3.75,0-6.89.26-9.62.81-.04-2.16-.08-4.33-.11-6.49-2.88.49-5.68,1.27-8.36,2.48-4.16,1.89-7.82,4.83-10.53,8.42-2.28,3.02-3.91,6.55-4.35,10.27-.66,5.67,1.76,10.79,5.84,14.76,3.41,3.3,7.54,6.05,11.1,8.6,2.81,1.93,3.47,5.7,1.48,8.41-1.99,2.71-5.88,3.35-8.69,1.42-4.17-2.73-8.96-5.73-12.99-9.33-3.14-2.82-5.79-6.02-7.61-9.64-5.31-10.55-3.63-21.22,1.64-30.12,1.89-3.21,4.29-6.16,7.01-8.76,2.7-2.57,5.72-4.83,8.98-6.69,1.25-.72,2.53-1.37,3.84-1.96,3.91-1.77,8.08-2.73,12.34-3.28.13-.01.27-.04.4-.05,3.31-.41,6.64-.59,9.99-.59h43.62s6.85-.44,13.4,1.83c3.35,1.68,6.31,4.02,8.83,6.85,1.8,2.02,2.64,4.66,2.82,7.31.03.4.04.79.04,1.22Z"/>
      <path class="cls-6" d="M380.87,295.05c-.01,3.28-.97,6.41-2.27,8.28-7.59,10.88-25.07,10.56-35.13,2.71-1.87-1.46-7.02-7.62-10.08-10.06-2.4-1.92-5.65-2.43-8.67-2.62-.25-.01-.5-.03-.76-.03-3.02-.14-6.03-.01-9.05-.1-4.28-.13-8.64-.05-12.87.67-2.88.49-5.68,1.27-8.36,2.48-4.16,1.89-7.82,4.83-10.53,8.42-2.28,3.02-3.91,6.55-4.35,10.27-.66,5.67,1.76,10.79,5.84,14.76,3.41,3.3,7.54,6.05,11.1,8.6,2.81,1.93,3.47,5.7,1.48,8.41-1.99,2.71-5.88,3.35-8.69,1.42-4.17-2.73-8.96-5.73-12.99-9.33-3.14-2.82-5.79-6.02-7.61-9.64-5.31-10.55-3.63-21.22,1.64-30.12,1.89-3.21,4.29-6.16,7.01-8.76,2.7-2.57,5.72-4.83,8.98-6.69,1.25-.72,2.53-1.37,3.84-1.96,3.91-1.77,8.08-2.73,12.34-3.28.13-.01.27-.04.4-.05,3.31-.41,6.64-.59,9.99-.59h43.62s6.85-.44,13.4,1.83c3.35,1.68,6.31,4.02,8.83,6.85,1.8,2.02,2.64,4.66,2.82,7.31.03.4.04.79.04,1.22Z"/>
      <path class="cls-6" d="M307.52,605.64l11.01-1.05c-.01.86-.03,1.7-.05,2.56-.04,2.25-.08,4.52-.12,6.78v.28c-.05,2.77-.11,5.52-.15,8.28-.05,2.56-.09,5.11-.15,7.65-.04,2.21-.08,4.43-.12,6.64-.03,1.87-.07,3.73-.11,5.59-.03,1.48-.05,2.97-.08,4.47,0,.49-.01.96-.03,1.45v.05c-.07.95-.6,4.47-4.72,4.47-4.69,0-4.72-4.6-4.72-4.7-.03-1.18-.04-2.37-.07-3.55-.03-1.66-.07-3.33-.09-4.98-.04-2.02-.07-4.03-.11-6.05-.04-2.34-.09-4.69-.13-7.04-.04-2.65-.09-5.31-.15-7.96-.01-.46-.01-.91-.03-1.37h0c-.04-2.19-.08-4.37-.12-6.54,0-.31-.01-.63-.01-.93-.03-1.36-.05-2.7-.08-4.06Z"/>
      <path class="cls-6" d="M320.05,511.11c-.05,3.16-.11,6.32-.17,9.49-.01,1.16-.04,2.34-.07,3.51-.03,1.15-.04,2.32-.07,3.47-.05,3.25-.12,6.5-.17,9.75-.07,4.25-.15,8.5-.23,12.75-.05,2.85-.11,5.71-.15,8.58-.03,1.22-.05,2.43-.07,3.65-.05,4.36-.14,8.74-.3,13.08-.06,1.6-.33,3.24-.91,4.76-.86,2.24-2.49,4.34-4.37,5.89-.88.73-1.88,1.3-3.05,1.37-.82.05-1.68-.19-2.24-.77-.67-.7-.77-1.74-.83-2.69-.03-.45-.06-.9-.09-1.36-.28-4.43-.21-8.91-.3-13.35-.08-3.9-.15-7.8-.21-11.69-.08-4.07-.16-8.15-.23-12.22-.07-3.72-.15-7.45-.21-11.16-.01-.52-.01-1.04-.03-1.56-.04-2.2-.08-4.4-.12-6.59-.04-2.19-.08-4.37-.12-6.55-.01-.69-.03-1.38-.04-2.07.6-.28,1.21-.55,1.83-.81,3.26-1.34,7.92-3.19,12.12-5.47Z"/>
      <path class="cls-6" d="M321.88,409.32v.24c-.08,4.39-.16,8.78-.24,13.17-.01.46-.01.92-.03,1.38-.03,2-.07,3.99-.11,5.99-.05,2.88-.11,5.76-.16,8.63-.08,4.88-.17,9.75-.25,14.62-.09,4.85-.19,9.7-.27,14.55-.04,2.25-.08,4.49-.12,6.75-.05,2.56-.09,5.12-.15,7.67-.04,2.71-.09,5.43-.15,8.14-.04,2.02-.07,4.06-.11,6.08-.02,1.05.02,2.12-.11,3.16-.12.97-.47,1.91-.97,2.77-.15.27-.32.52-.51.77-.58.79-1.29,1.48-2.06,2.09-2.34,1.84-5.26,3.21-8.34,2.78-.52-.07-1.03-.2-1.47-.48-.36-.23-.66-.56-.83-.95-.15-.37-.11-.76-.14-1.14-.09-1.08-.04-2.18-.06-3.26-.06-3.38-.13-6.77-.19-10.15-.08-4.69-.17-9.37-.25-14.06-.09-4.74-.17-9.49-.27-14.22-.08-4.77-.17-9.56-.25-14.34-.07-3.69-.13-7.36-.2-11.05-.03-1.11-.04-2.23-.07-3.34-.03-1.33-.05-2.66-.08-4.01-.05-3.46-.12-6.91-.19-10.37,0-.27-.01-.55-.01-.82,5.72-2.94,11.89-5.89,17.33-10.43.07-.06.15-.12.21-.18Z"/>
      <path class="cls-6" d="M324.25,277.84c-.03,1.42-.05,2.85-.08,4.28-.05,3.42-.12,6.84-.19,10.27,0,.3-.01.59-.01.89-.02,1.58-.05,3.15-.07,4.73-.07,1.76-.08,3.58-.12,5.37-.07,3.89-.13,7.77-.2,11.66-.08,4.08-.16,8.17-.23,12.25-.08,4.26-.16,8.51-.23,12.78-.08,4.42-.16,8.83-.24,13.24-.05,2.91-.12,5.8-.16,8.69-.04,1.65-.07,3.3-.09,4.95-.03,1.7-.07,3.41-.09,5.12-.05,2.94-.11,5.89-.16,8.85-.08,4.74-.17,9.49-.25,14.22-.02,1.27-.05,2.54-.07,3.81-.02.88-.38,1.72-1.02,2.35-1.1,1.09-2.33,2.2-3.72,3.37-2.44,2.02-5.11,3.73-7.87,5.29-2.35,1.33-5.31-.25-5.36-2.88,0-.2,0-.4-.01-.6-.09-4.72-.17-9.45-.27-14.16-.08-4.66-.16-9.31-.25-13.95-.08-4.57-.16-9.13-.24-13.68-.09-4.45-.17-8.91-.25-13.36-.01-.46-.01-.92-.03-1.38-.07-3.85-.15-7.72-.21-11.58-.01-.65-.03-1.31-.04-1.97-.05-3.51-.12-7.01-.19-10.53-.07-3.99-.15-7.99-.21-11.99-.07-3.8-.13-7.6-.21-11.41-.01-.68-.03-1.37-.04-2.05-.04-2.16-.08-4.33-.11-6.49-.01-.74-.03-1.48-.04-2.23-.03-1.63-.07-3.25-.09-4.88,0-.17-.01-.35,0-.51-.01-.22-.01-.44-.01-.65-.01-.03-.01-.05-.01-.08-.03-1.32-.04-2.62-.07-3.94-.01-1.04-.04-2.09-.05-3.12h0c3.44-.45,6.9-.64,10.39-.64h12.09Z"/>
      <path class="cls-6" d="M351.71,165.09c-4.36-4.54-14.22-5.05-14.43,3.73-.2,7.26,6.88,3.86,7.28,7.76.88,8.56-11.06,15.77-17.68,8.74-1.86-1.97-2.72-4.44-2.96-7.07-.79-8.9,7.19-13.32,9.85-20.99,2.64-7.63-1.31-14.12-6.06-19.95-2.64-3.23-5.14-6.52-7.93-9.63-.47-.52-5.73-6.34-6.38-6.7-.65.37-5.91,6.18-6.38,6.7-2.79,3.11-5.3,6.4-7.93,9.63-4.75,5.83-8.7,12.32-6.06,19.95,2.65,7.67,10.64,12.09,9.85,20.99-.23,2.63-1.1,5.1-2.96,7.07-6.61,7.03-18.56-.17-17.68-8.74.4-3.9,7.48-.5,7.28-7.76-.22-8.77-10.07-8.27-14.43-3.73-5.68,5.92-5.28,15.77-2.02,22.72,1.75,3.74,4.47,6.84,6.9,10.15,4.65,6.32,9.75,12.33,14,18.91,1.6,2.49,3.08,5.05,4.32,7.73,1.1,2.32,2.07,4.79,2.63,7.31.61,2.61.5,5.08.56,7.73.02,1.5.05,2.99.07,4.49.04,1.86.07,3.71.11,5.59.04,2.19.07,4.39.13,6.58.04,2.52.09,5.05.13,7.57.05,2.72.11,5.45.16,8.18,3.35-.4,6.9-.61,10.51-.61h1.62c3.6,0,7.15.21,10.51.61.05-2.73.11-5.47.16-8.18.04-2.52.09-5.05.13-7.57.05-2.19.09-4.39.13-6.58.04-1.88.07-3.73.11-5.59.02-1.5.05-2.99.07-4.49.05-2.65-.05-5.12.56-7.73.56-2.52,1.53-5,2.63-7.31,1.24-2.68,2.72-5.24,4.32-7.73,4.25-6.58,9.35-12.59,14-18.91,2.43-3.31,5.15-6.41,6.9-10.15,3.26-6.95,3.66-16.8-2.02-22.72Z"/>
      <path class="cls-9" d="M435.16,439.32s.01-.04.01-.06c.08-.28.16-.57.23-.86-.15.57-.32,1.14-.51,1.7.08-.26.17-.53.27-.79ZM434.47,426.39s-.01-.01-.02-.01c0,.02.01.05.02.07.42,1.1.8,2.24,1.07,3.4-.25-1.18-.63-2.34-1.07-3.46Z"/>
      <path class="cls-12" d="M457.97,799.29c0,11.92-9.93,21.6-22.22,21.74-.11.02-.2.02-.31.02-4.63,0-8.94-1.36-12.52-3.67-6.04-3.9-10-10.53-10-18.09s3.96-14.19,10-18.09c3.59-2.32,7.89-3.67,12.52-3.67.11,0,.2,0,.31.02,12.29.14,22.22,9.84,22.22,21.74Z"/>
      <path class="cls-10" d="M435.31,438.74c-.12.46-.25.91-.41,1.36.08-.26.17-.53.27-.79.01-.02.01-.04.01-.06.08-.28.16-.57.23-.86s.13-.56.19-.84c-.08.4-.19.79-.29,1.18Z"/>
      <path class="cls-8" d="M622.97,436.83c-7.94-44.1-41.48-102.76-105.54-184.63-13.48-17.22-36.66-47.05-63.49-81.59C405.42,108.17,345.06,30.44,325.05,5.55c-.09-.13-.18-.21-.29-.34-.12-.13-.23-.29-.38-.41-.22-.25-.42-.47-.67-.68l-.32-.32c-.28-.25-.55-.47-.84-.68-.05-.05-.09-.08-.12-.11-.07-.05-.11-.07-.17-.12-.28-.21-.59-.42-.91-.61-.11-.07-.22-.14-.33-.21-.3-.18-.59-.32-.89-.47-.16-.07-.3-.15-.46-.22-.25-.13-.52-.23-.8-.32-.19-.08-.39-.18-.59-.25-.23-.07-.45-.14-.7-.21-.23-.07-.46-.12-.68-.19-.23-.04-.45-.08-.67-.14-.23-.04-.49-.07-.74-.12-.23-.02-.45-.08-.67-.08-.25-.04-.49-.09-.74-.09h-1.41c-.24,0-.49.06-.73.09-.22,0-.44.05-.67.07-.24.05-.49.08-.74.13-.22.05-.44.11-.66.14-.23.07-.45.12-.7.19-.23.07-.46.13-.68.21-.22.07-.41.17-.62.25-.24.08-.52.19-.79.32-.15.07-.3.15-.45.22-.29.15-.59.29-.89.47-.11.07-.22.14-.34.21-.3.19-.61.4-.9.61-.06.05-.11.07-.17.12-.05.02-.09.06-.13.11-.29.21-.55.43-.84.68l-.33.32c-.23.21-.42.43-.66.68-.13.12-.25.28-.39.41-.08.13-.18.21-.28.34-20.01,24.89-80.36,102.62-128.89,165.06-26.82,34.53-50,64.37-63.47,81.59C45.31,334.08,11.75,392.73,3.81,436.83c-5.5,30.51-5.05,57.85,1.41,83.52,6.5,25.92,19.1,50.18,38.53,74.14,8.58,10.6,18.87,18.36,28.83,25.86,10.36,7.82,20.14,15.18,26.64,24.92,7.46,11.17,12.11,41.6,12.11,80.44,0,75.12,40.18,87.28,64.16,87.28h126.67c17.54,0,32.18-12.51,33.26-29.41.45-7.09,1.31-13.87,2.67-20.87.18-.9.36-1.64.53-2.55,2.97-14.17,19.08-23.03,25-26.15.19-.08.38-.11.56-.22,23.99-11.22,42.58-32.97,55.28-64.72,2.41-6.06,1.33-12.66-2.45-17.61,21.82-58.07,26.98-74.03,47.12-136.29l3.13-9.7c7.16-22.14,5.79-41.04-4.07-56.18-7.61-11.66-18.51-18.68-28.71-22.89.44,1.11.81,2.27,1.07,3.46-.27-1.16-.64-2.3-1.07-3.4-.01-.02-.02-.26-.02-.28-3.01-7.58-10.78-13.17-19.65-13.17h-23.76c-11.46,0-19.31,9.38-19.31,20.45v.49c0,11.07,7.85,19.06,19.31,19.06h23.76c6.38,0,12.28-2.29,16.09-6.68.04-.05.08.27.11.22,5.57,2.95,10.95,7.3,14.77,13.18,6.48,9.95,7.05,23.38,1.78,39.69l-3.14,9.73c-20.44,63.21-25.3,78.21-46.85,135.52-3.46.83-6.71,2.66-9.27,5.39-1.82,1.95-3.12,4.2-3.9,6.57-.7,2.16-1.42,4.34-2.35,6.43-5.41,11.8-11.41,20.43-17.56,26.75-.53.57-1.09,1.11-1.64,1.65-.05.04-.11.07-.16.13-4.16,3.75-15.75,12.44-36.34,15.16-3.97.53-8.29.82-12.95.82s-8.97-.29-12.94-.82c-20.59-2.72-32.18-11.41-36.34-15.16-.06-.06-.11-.09-.17-.13-.53-.54-1.09-1.08-1.64-1.65-6.14-6.32-12.15-14.97-17.55-26.77-.93-2.06-1.66-4.24-2.37-6.4-.76-2.37-2.05-4.62-3.88-6.56-2.55-2.73-5.79-4.55-9.27-5.38-21.55-57.31-26.38-72.28-46.82-135.49l-3.13-9.68c-5.28-16.31-4.65-29.62,1.83-39.58,4.08-6.24,9.96-11.08,15.89-14.04,3.83,4.65,9.72,7.1,16.3,7.1h23.76c11.46,0,20.67-7.99,20.67-19.06v-.49c0-11.07-9.22-20.45-20.67-20.45h-23.76c-8.64,0-16.1,5.32-19.25,12.6-10.62,4.14-22.44,11.34-30.43,23.6-9.85,15.15-11.24,34.08-4.07,56.23l3.12,9.73c20.14,62.26,25.3,78.23,47.12,136.3-3.79,4.95-4.87,11.56-2.45,17.63,12.71,31.76,31.28,53.53,55.28,64.75.19.11.38.18.56.26,5.95,3.12,22.04,12.05,24.99,26.22,1.18,5.6,2.04,11.26,2.69,16.43.59,4.86-3.37,9.26-8.42,9.26h-106.22c-8.75-3-35.39-.98-35.39-59.54,0-12.03-.47-30.22-2.67-48.22-2.74-22.37-7.37-38.21-14.15-48.37-9.21-13.76-21.44-23.03-33.27-31.97-8.97-6.73-17.41-13.11-23.76-20.97-33.08-40.82-43.6-82.52-34.09-135.2,7-38.92,39.73-95.3,100.03-172.34,13.48-17.26,36.67-47.11,63.53-81.68,41.1-52.9,90.73-116.78,116.95-150.04,26.25,33.26,75.86,97.13,116.96,150.04,26.86,34.57,50.05,64.43,63.53,81.68,60.31,77.04,93.02,133.41,100.05,172.33,9.49,52.68-1.03,94.39-34.1,135.21-6.36,7.85-14.82,14.23-23.75,20.96-11.84,8.93-24.1,18.18-33.29,31.94-6.77,10.15-11.43,25.98-14.15,48.34-2.2,18.01-2.67,36.14-2.67,48.17,0,18.87-2.75,31.72-6.78,40.48-10.1-12.66-25.96-20.84-43.75-20.84-4.83,0-9.49.61-13.97,1.75-12.72,3.2-23.65,10.7-31.07,20.8-6.4,8.69-10.14,19.31-10.14,30.76s3.75,22.07,10.14,30.77c7.41,10.09,18.35,17.6,31.07,20.8,4.48,1.14,9.14,1.75,13.97,1.75,30.24,0,54.86-23.61,55.19-52.72,13.87-12.23,24.84-34.3,24.84-73.54s4.64-69.89,12.1-81.06c6.5-9.74,16.29-17.1,26.65-24.92,9.96-7.5,20.25-15.26,28.83-25.86,19.42-23.96,32.02-48.23,38.53-74.14,6.46-25.67,6.9-53.01,1.38-83.52ZM435.16,439.32c-.05.18-.13.36-.19.54.12-.37.23-.74.34-1.12-.05.17-.08.35-.13.52,0,.02,0,.04-.01.06ZM465.79,812.45c-2.2,4.7-5.53,8.82-9.66,11.96-5.68,4.4-12.86,7-20.69,7-3.62,0-7.11-.55-10.38-1.62-4.87-1.52-9.22-4.14-12.81-7.51-6.2-5.81-10.05-13.98-10.05-22.99s3.85-17.16,10.05-22.98c3.59-3.38,7.95-5.99,12.81-7.51,3.26-1.07,6.76-1.62,10.38-1.62,7.83,0,15.05,2.63,20.73,7.01,3.19,2.45,5.9,5.46,7.97,8.87,2.91,4.76,4.57,10.32,4.57,16.22,0,4.69-1.04,9.14-2.92,13.16Z"/>
      <path class="cls-7" d="M435.6,437.56c-.06.28-.12.56-.19.84s-.15.57-.23.86c0,.02,0,.04-.01.06-.1.26-.18.53-.27.79.16-.45.28-.91.41-1.36.11-.39.22-.78.29-1.18Z"/>
    </g>
  </g>
</svg>