<?xml version="1.0" encoding="UTF-8"?>
<svg id="Layer_2" data-name="Layer 2" xmlns="http://www.w3.org/2000/svg" xmlns:xlink="http://www.w3.org/1999/xlink" viewBox="0 0 792.93 852.41">
  <defs>
    <style>
      .cls-1 {
        fill: none;
      }

      .cls-1, .cls-2, .cls-3, .cls-4, .cls-5, .cls-6, .cls-7, .cls-8, .cls-9, .cls-10, .cls-11, .cls-12, .cls-13 {
        stroke-width: 0px;
      }

      .cls-2 {
        fill: url(#linear-gradient);
      }

      .cls-2, .cls-3, .cls-4, .cls-5, .cls-6 {
        fill-rule: evenodd;
      }

      .cls-3 {
        fill: url(#linear-gradient-3);
      }

      .cls-4 {
        fill: url(#linear-gradient-2);
      }

      .cls-5 {
        fill: url(#linear-gradient-4);
      }

      .cls-14 {
        font-family: Poppins-Medium, Poppins;
        font-size: 67.64px;
        font-weight: 500;
        letter-spacing: .63em;
        stroke: #000;
        stroke-miterlimit: 10;
        stroke-width: 2px;
      }

      .cls-6, .cls-11 {
        fill: #093e6a;
      }

      .cls-7 {
        fill: url(#linear-gradient-8);
      }

      .cls-8 {
        fill: url(#linear-gradient-7);
      }

      .cls-9 {
        fill: url(#linear-gradient-5);
      }

      .cls-10 {
        fill: url(#linear-gradient-6);
      }

      .cls-12 {
        fill: #bffd82;
      }

      .cls-13 {
        fill: #044273;
      }
    </style>
    <linearGradient id="linear-gradient" x1="215.84" y1="139.98" x2="215.84" y2="500.87" gradientUnits="userSpaceOnUse">
      <stop offset=".18" stop-color="#044273"/>
      <stop offset=".8" stop-color="#bffd82"/>
    </linearGradient>
    <linearGradient id="linear-gradient-2" x1="168.16" y1="139.98" x2="168.16" y2="500.87" xlink:href="#linear-gradient"/>
    <linearGradient id="linear-gradient-3" x1="418.68" x2="418.68" xlink:href="#linear-gradient"/>
    <linearGradient id="linear-gradient-4" x1="466.36" y1="139.98" x2="466.36" y2="500.87" xlink:href="#linear-gradient"/>
    <linearGradient id="linear-gradient-5" x1="407.67" y1="316.91" x2="407.67" y2="327.16" gradientUnits="userSpaceOnUse">
      <stop offset=".15" stop-color="#0095a9"/>
      <stop offset=".79" stop-color="#044273"/>
    </linearGradient>
    <linearGradient id="linear-gradient-6" x1="407.86" y1="325.23" x2="407.86" y2="327.12" xlink:href="#linear-gradient-5"/>
    <linearGradient id="linear-gradient-7" x1="317.26" y1="0" x2="317.26" y2="633.83" xlink:href="#linear-gradient-5"/>
    <linearGradient id="linear-gradient-8" x1="407.86" y1="325.23" x2="407.86" y2="327.13" xlink:href="#linear-gradient-5"/>
  </defs>
  <g id="Layer_1-2" data-name="Layer 1">
    <g>
      <g>
        <g>
          <path class="cls-2" d="M282.48,148.59c-3.32-3.13-7.71-5.11-12.22-6.21-13.16-3.2-27.63.91-37.92,9.45-8.74,7.26-14.56,17.4-17.38,28.12-3.28,12.46-1.83,25.54.74,38.03,1.24,6.01,2.77,11.96,4.32,17.91-.23-.88-6.49-2.42-7.31-2.64-2.84-.74-5.8-1.11-8.75-1.03-4.89.13-12.22,2-14.06,7.08-.64,1.78-.2,3.77.67,5.4.78,1.45,1.9,2.57,3.52,3.12,2.04.69,4.2.55,6.08,1.73,2.42,1.51.24,5.17-1.6,6.17-2.15,1.16-4.65,1.15-7.02,1.42-4.23.47-8.3,1.48-11.82,3.89-5.09,3.5-8.49,8.91-12.02,13.76-3.03,4.17-6.31,8.1-10.22,11.53-2.74,2.41-5.8,4.32-9.19,5.75-.69.29-5.78,1.74-5.26,2.72.67,1.25,3.05,1.92,4.27,2.4,4.7,1.84,9.88,2.35,14.93,2.07,14.29-.81,27.75-7.81,38.19-16.99,3.94-3.46,7.4-7.39,11.31-10.88,3.37-3.01,14.19-11.72,19.24-7.86,3.46,2.65-2.34,5.29-4.25,6.33-5.53,3-11.03,7.02-13.69,12.75-1.15,2.48-2.1,6.03.3,8.17,2.77,2.48,6.94-.27,9.33-1.9,6.51-4.43,12.32-10.16,19.82-13.06,4.81-1.85,10.04-2.67,15.21-2.43,4.81.23,10.8,3.34,15.5,1.99-6.01-6.57-12.73-12.48-18.81-18.98-6.31-6.74-11.45-14.47-15.94-22.45-7.2-12.8-13.02-27.89-10.97-42.63,1.64-11.79,7.67-23.74,19.36-28.91,1.07-.47,2.17-.88,3.29-1.23,2.92-.9,6.04-1.38,9.06-.85,3.02.53,5.91,2.15,7.46,4.71.77,1.27,1.18,2.82.75,4.23-.43,1.41-1.88,2.57-3.39,2.39-2.09-.25-3.14-2.61-5.02-3.53-1.57-.77-3.58-.38-4.95.69s-2.18,2.7-2.55,4.36c-1.17,5.2,1.77,10.84,6.5,13.58,4.73,2.74,10.86,2.73,15.9.58s9.03-6.25,11.61-10.96c4.68-8.52,4.54-19.94-2.21-27.04-.25-.27-.51-.52-.78-.77Z"/>
          <path class="cls-4" d="M199.94,422.17c-3.54-6.19-1.15-6.85.71-14.61,2.22-9.3-.89-22.7-8.93-28.83-6.73-5.13-19.69-5.66-25.04,1.77-1.43,1.99-2.13,4.21-1.74,6.63.6,3.76,6.68,9.61,9.75,4.97,2.89-4.38-6.27-5.4,1.03-9.47,4.83-2.69,10.31,2.51,11.42,6.46,2.25,8.05-1.37,12.09-12.84,13.96-10.96,1.79-21.48-4.38-28.82-11.72-6.75-6.76-10.7-14.49-12.14-23.74-1.19-7.69-.82-15.78,1.74-23.18,2.28-6.6,7.42-14.94,14.59-17.54.74-.27,2.55-.88,4.64-1.25,1.02-.12,2.06-.22,2.77-.29,1.2-.03,2.38.07,3.42.42,15.35,5.15,14.17,18.13,7.16,23.45-3.44,2.6-14.37,4.4-13.89-3.84.1-1.67,1.34-2.22,3.21-1.62,1.33.43,2.46.76,3.8-.66.56-.59.8-1.43.79-2.22-.05-3.17-3.91-5.23-6.74-5.47-4.76-.41-7.96,2.94-8.97,6.33-5.28,17.72,13.85,24.12,24.96,21.73,11.07-2.38,18.59-10.21,14.95-21.68-1.79-5.63-5.85-8.84-4.94-15.31.23-1.62.64-3.12,1.62-4.48,2.22-3.07,6.9-5.81,9.92-1.84.35.46.66.95.8,1.51.1.39.11.8.06,1.2-.34,2.35-1.66-.26-3.82.32-3.27.88-3.09,5.36-.93,7.24,3.59,3.12,8.9-.88,11.39-3.4,5.67-5.74,9.4-19,8.57-26.86-.05-.45-1.49,1.42-1.79,1.68-1.29,1.13-2.75,2.06-4.29,2.84-3.28,1.67-6.93,2.73-10.56,3.42-4.07.77-7.84.4-11.94.27-8.74-.28-17.58.6-25.94,3.16-.83.26-1.66.53-2.49.82-14.49,5.09-26.37,15.52-31.06,29.91-1.02,3.13-1.7,6.35-2.05,9.61-2.13,19.98,7.94,41.04,25.14,52.3,8.58,5.62,17.92,9.62,26.95,14.46,8.18,4.38,9.85,5.33,14,8.1.37.24,18.86,16.86,25.23,33.32,2.65,6.84,4.42,14.08,5.14,21.35.26,2.62.38,5.25.39,7.88,0,.2-.18,2.57.12,2.61.35.05,1.26-2.96,1.38-3.4,1.06-3.92,1.5-8.02,1.6-12.06.34-15.11-2.1-30.62-11.72-43.78l-6.6-10.49Z"/>
        </g>
        <g>
          <path class="cls-3" d="M352.04,148.59c3.32-3.13,7.71-5.11,12.22-6.21,13.16-3.2,27.63.91,37.92,9.45,8.74,7.26,14.56,17.4,17.38,28.12,3.28,12.46,1.83,25.54-.74,38.03-1.24,6.01-2.77,11.96-4.32,17.91.23-.88,6.49-2.42,7.31-2.64,2.84-.74,5.8-1.11,8.75-1.03,4.89.13,12.22,2,14.06,7.08.64,1.78.2,3.77-.67,5.4-.78,1.45-1.9,2.57-3.52,3.12-2.04.69-4.2.55-6.08,1.73-2.42,1.51-.24,5.17,1.6,6.17,2.15,1.16,4.65,1.15,7.02,1.42,4.23.47,8.3,1.48,11.82,3.89,5.09,3.5,8.49,8.91,12.02,13.76,3.03,4.17,6.31,8.1,10.22,11.53,2.74,2.41,5.8,4.32,9.19,5.75.69.29,5.78,1.74,5.26,2.72-.67,1.25-3.05,1.92-4.27,2.4-4.7,1.84-9.88,2.35-14.93,2.07-14.29-.81-27.75-7.81-38.19-16.99-3.94-3.46-7.4-7.39-11.31-10.88-3.37-3.01-14.19-11.72-19.24-7.86-3.46,2.65,2.34,5.29,4.25,6.33,5.53,3,11.03,7.02,13.69,12.75,1.15,2.48,2.1,6.03-.3,8.17-2.77,2.48-6.94-.27-9.33-1.9-6.51-4.43-12.32-10.16-19.82-13.06-4.81-1.85-10.04-2.67-15.21-2.43-4.81.23-10.8,3.34-15.5,1.99,6.01-6.57,12.73-12.48,18.81-18.98,6.31-6.74,11.45-14.47,15.94-22.45,7.2-12.8,13.02-27.89,10.97-42.63-1.64-11.79-7.67-23.74-19.36-28.91-1.07-.47-2.17-.88-3.29-1.23-2.92-.9-6.04-1.38-9.06-.85-3.02.53-5.91,2.15-7.46,4.71-.77,1.27-1.18,2.82-.75,4.23.43,1.41,1.88,2.57,3.39,2.39,2.09-.25,3.14-2.61,5.02-3.53,1.57-.77,3.58-.38,4.95.69,1.37,1.07,2.18,2.7,2.55,4.36,1.17,5.2-1.77,10.84-6.5,13.58-4.73,2.74-10.86,2.73-15.9.58-5.04-2.15-9.03-6.25-11.61-10.96-4.68-8.52-4.54-19.94,2.21-27.04.25-.27.51-.52.78-.77Z"/>
          <path class="cls-5" d="M434.58,422.17c3.54-6.19,1.15-6.85-.71-14.61-2.22-9.3.89-22.7,8.93-28.83,6.73-5.13,19.69-5.66,25.04,1.77,1.43,1.99,2.13,4.21,1.74,6.63-.6,3.76-6.68,9.61-9.75,4.97-2.89-4.38,6.27-5.4-1.03-9.47-4.83-2.69-10.31,2.51-11.42,6.46-2.25,8.05,1.37,12.09,12.84,13.96,10.96,1.79,21.48-4.38,28.82-11.72,6.75-6.76,10.7-14.49,12.14-23.74,1.19-7.69.82-15.78-1.74-23.18-2.28-6.6-7.42-14.94-14.59-17.54-.74-.27-2.55-.88-4.64-1.25-1.02-.12-2.06-.22-2.77-.29-1.2-.03-2.38.07-3.42.42-15.35,5.15-14.17,18.13-7.16,23.45,3.44,2.6,14.37,4.4,13.89-3.84-.1-1.67-1.34-2.22-3.21-1.62-1.33.43-2.46.76-3.8-.66-.56-.59-.8-1.43-.79-2.22.05-3.17,3.91-5.23,6.74-5.47,4.76-.41,7.96,2.94,8.97,6.33,5.28,17.72-13.85,24.12-24.96,21.73-11.07-2.38-18.59-10.21-14.95-21.68,1.79-5.63,5.85-8.84,4.94-15.31-.23-1.62-.64-3.12-1.62-4.48-2.22-3.07-6.9-5.81-9.92-1.84-.35.46-.66.95-.8,1.51-.1.39-.11.8-.06,1.2.34,2.35,1.66-.26,3.82.32,3.27.88,3.09,5.36.93,7.24-3.59,3.12-8.9-.88-11.39-3.4-5.67-5.74-9.4-19-8.57-26.86.05-.45,1.49,1.42,1.79,1.68,1.29,1.13,2.75,2.06,4.29,2.84,3.28,1.67,6.93,2.73,10.56,3.42,4.07.77,7.84.4,11.94.27,8.74-.28,17.58.6,25.94,3.16.83.26,1.66.53,2.49.82,14.49,5.09,26.37,15.52,31.06,29.91,1.02,3.13,1.7,6.35,2.05,9.61,2.13,19.98-7.94,41.04-25.14,52.3-8.58,5.62-17.92,9.62-26.95,14.46-8.18,4.38-9.85,5.33-14,8.1-.37.24-18.86,16.86-25.23,33.32-2.65,6.84-4.42,14.08-5.14,21.35-.26,2.62-.38,5.25-.39,7.88,0,.2.18,2.57-.12,2.61-.35.05-1.26-2.96-1.38-3.4-1.06-3.92-1.5-8.02-1.59-12.06-.34-15.11,2.1-30.62,11.72-43.78l6.6-10.49Z"/>
        </g>
        <path class="cls-11" d="M308.86,212.4c-.04-.09-.09-.15-.16-.2-.19-.18-.48-.24-.74-.12-.21.1-.37.3-.4.53-.02.14,0,.41.3.65l.42-.5h0l.24.51c.08-.04.15-.09.2-.14.11-.1.17-.22.18-.35l-.18-.03-.38-.06.36-.44s0,0,0,0c.09.07.22.26.19.51.04-.12.02-.26-.04-.37Z"/>
        <g>
          <path class="cls-6" d="M324.07,276.53c-.44-1.09-.69-2.27-.71-3.48-.02-1.4.28-2.76.85-4.01-.03,1.23-.05,2.46-.07,3.68-.02,1.27-.05,2.53-.07,3.81Z"/>
          <path class="cls-6" d="M339.02,299.79c-1.03,1.79-2.28,3.45-3.69,5.01-1.96,2.17-4.21,4.12-6.51,5.89-1.75,1.34-3.59,2.48-5.44,3.51,0,.34,0,.69-.02,1.03-.02,1.48-.05,2.97-.08,4.45-1.68.85-3.35,1.62-4.93,2.35-2.73,1.27-5.35,2.47-7.59,3.86-.02-.83-.03-1.66-.05-2.48-.02-.99-.04-1.98-.06-2.98-1.68.89-3.28,1.85-4.74,2.93-3.49,2.61-6.02,6.17-6.7,12.17-.19,1.65.72,4.17,1.86,6.59,1.22,2.55,2.75,5.01,4.12,6.2,1.24,1.04,1.38,2.86.31,4.05-1.07,1.2-2.95,1.33-4.19.29-2.2-1.75-4.94-5.67-6.75-9.58-1.4-3.02-2.15-6.04-2.01-8.13.42-6.02,2.36-10.29,5.11-13.65,2.82-3.44,6.59-5.87,10.76-8.12.68-.36,1.37-.72,2.08-1.09,4.26-2.19,8.84-4.38,12.89-7.76.05-.05.11-.09.16-.13h0c1.49-1.25,2.94-2.59,4.25-4.05,1.25-1.39,2.35-2.88,3.21-4.51,1.58-3.01,2.44-6.87,2.29-10.59-.13-3.26-1.11-6.45-3.49-8.61-2.02-1.9-2.06-5.03-.09-6.97,1.97-1.95,5.2-1.98,7.22-.09,3.34,3.3,5.25,7.62,5.8,12.32.73,6.23-.83,13.05-3.73,18.07Z"/>
          <path class="cls-6" d="M339.02,299.79c-1.03,1.79-2.28,3.45-3.69,5.01-1.96,2.17-4.21,4.12-6.51,5.89-1.75,1.34-3.59,2.48-5.44,3.51-4.32,2.39-8.76,4.14-12.72,6.23-1.68.89-3.28,1.85-4.74,2.93-3.49,2.61-6.02,6.17-6.7,12.17-.19,1.65.72,4.17,1.86,6.59,1.22,2.55,2.75,5.01,4.12,6.2,1.24,1.04,1.38,2.86.31,4.05-1.07,1.2-2.95,1.33-4.19.29-2.2-1.75-4.94-5.67-6.75-9.58-1.4-3.02-2.15-6.04-2.01-8.13.42-6.02,2.36-10.29,5.11-13.65,2.82-3.44,6.59-5.87,10.76-8.12.68-.36,1.37-.72,2.08-1.09,4.26-2.19,8.84-4.38,12.89-7.76.05-.05.11-.09.16-.13h0c1.49-1.25,2.94-2.59,4.25-4.05,1.25-1.39,2.35-2.88,3.21-4.51,1.58-3.01,2.44-6.87,2.29-10.59-.13-3.26-1.11-6.45-3.49-8.61-2.02-1.9-2.06-5.03-.09-6.97,1.97-1.95,5.2-1.98,7.22-.09,3.34,3.3,5.25,7.62,5.8,12.32.73,6.23-.83,13.05-3.73,18.07Z"/>
        </g>
        <g>
          <path class="cls-6" d="M322.48,364.56c-2.62-2.86-3-7.06-.94-10.31.34-.53.72-1.01,1.15-1.45-.04,1.9-.07,3.81-.11,5.7-.03,2.02-.07,4.04-.11,6.05Z"/>
          <path class="cls-6" d="M333.72,379.35c-1.19,1.68-3.06,3.26-5.37,4.62-1.92,1.12-4.12,2.13-6.28,3.01,0,.87-.03,1.74-.05,2.61-.02.86-.03,1.72-.05,2.58-1.56.6-3.02,1.11-4.26,1.55l-.59.21c-2.82,1-4.27,2.07-5.07,3.14,0-.39,0-.77-.02-1.16-.03-1.64-.06-3.27-.09-4.9-2.58,1.45-4.52,3.43-5.48,6.41-1.05,3.29-1.04,7.61.22,13.37.3,1.17-.45,2.35-1.67,2.63-1.21.29-2.43-.44-2.72-1.62-2.4-8.7-1.89-14.71.33-19.05,1.89-3.7,5.07-6.25,9.21-8.16.44-.21.9-.41,1.36-.6,2.42-1,5.89-2.37,9.02-4.06.34-.18.68-.37,1.01-.56,1.94-1.11,3.68-2.34,4.56-3.74,1.28-2.03,1.73-4,1.74-5.8.02-3.63-1.9-6.53-2.89-7.84-.15-.19-.31-.38-.4-.49-1.21-1.27-1.47-3.21-.49-4.75,1.18-1.86,3.7-2.44,5.61-1.29.03.02.89.56,1.81,1.89,1.18,1.71,3.44,5.48,3.83,10.2.3,3.57-.34,7.67-3.27,11.8Z"/>
          <path class="cls-6" d="M333.72,379.35c-1.19,1.68-3.06,3.26-5.37,4.62-1.92,1.12-4.12,2.13-6.28,3.01-2.43,1-4.8,1.83-6.64,2.47-1.26.45-2.43.95-3.49,1.55-2.58,1.45-4.52,3.43-5.48,6.41-1.05,3.29-1.04,7.61.22,13.37.3,1.17-.45,2.35-1.67,2.63-1.21.29-2.43-.44-2.72-1.62-2.4-8.7-1.89-14.71.33-19.05,1.89-3.7,5.07-6.25,9.21-8.16.44-.21.9-.41,1.36-.6,2.42-1,5.89-2.37,9.02-4.06.34-.18.68-.37,1.01-.56,1.94-1.11,3.68-2.34,4.56-3.74,1.28-2.03,1.73-4,1.74-5.8.02-3.63-1.9-6.53-2.89-7.84-.15-.19-.31-.38-.4-.49-1.21-1.27-1.47-3.21-.49-4.75,1.18-1.86,3.7-2.44,5.61-1.29.03.02.89.56,1.81,1.89,1.18,1.71,3.44,5.48,3.83,10.2.3,3.57-.34,7.67-3.27,11.8Z"/>
        </g>
        <path class="cls-6" d="M326.98,439.89c-1.79,2.02-3.81,3.43-5.94,4.46-1.91.93-3.89,1.56-5.88,2.08-.74.19-1.48.35-2.2.51-2.99.65-5.77,1.22-7.65,3.14-1.49,1.52-2.28,3.9-2.24,7.78.05,1.14-.88,2.11-2.07,2.16-1.18.05-2.19-.86-2.24-2-.37-5.46.92-8.8,2.91-11.08,2.32-2.65,5.81-3.84,9.66-4.97.5-.14,1.01-.29,1.53-.44h0c2.89-.87,5.89-1.9,8.31-4.3h0c.35-.34.68-.71,1-1.11,3.96-4.99,2.69-8.85,1.58-10.61-.19-.29-.43-.59-.53-.7-.24-.23-.43-.5-.6-.8-.43-.82-.41-1.47-.38-1.81.12-1.76,1.13-2.68,2.55-3.08.39-.11,1.64-.53,3.09.49.05.04.22.14.43.35,0,.02.05.05.1.1.02.02.06.05.11.1.08.1.25.29.46.58.65.89,1.93,2.83,2.43,5.56.64,3.44.31,8.23-4.42,13.58Z"/>
        <path class="cls-1" d="M336.15,210.08s.01-.02.02-.02"/>
        <path class="cls-6" d="M309.38,249.98c2.06,2.93,2.25,6.91.19,10.08-.05-2.86-.11-5.74-.16-8.61,0-.49-.02-.97-.03-1.47Z"/>
        <path class="cls-6" d="M367.43,219.26c0,2.44-.72,4.77-1.68,6.16-5.65,8.09-18.64,7.85-26.12,2.02-1.39-1.09-5.22-5.66-7.5-7.48-1.78-1.43-4.2-1.81-6.44-1.95-.19,0-.37-.02-.56-.02-.03,1.58-.06,3.17-.09,4.75-.85-.04-1.72-.05-2.48-.05h-2.07c-.75,0-1.5,0-2.25-.02-.71-.02-1.45-.04-2.18-.04-2.79,0-5.12.19-7.15.6-.03-1.61-.06-3.22-.08-4.83-2.14.36-4.23.94-6.22,1.85-3.09,1.41-5.81,3.59-7.83,6.26-1.69,2.25-2.91,4.87-3.23,7.63-.49,4.22,1.31,8.02,4.35,10.97,2.53,2.46,5.61,4.5,8.26,6.4,2.09,1.44,2.58,4.24,1.1,6.25-1.48,2.02-4.37,2.49-6.46,1.06-3.1-2.03-6.66-4.26-9.66-6.94-2.34-2.09-4.31-4.47-5.66-7.17-3.95-7.84-2.7-15.78,1.22-22.4,1.41-2.39,3.19-4.58,5.21-6.51,2.01-1.91,4.26-3.59,6.68-4.98.93-.53,1.88-1.02,2.86-1.46,2.91-1.31,6.01-2.03,9.17-2.44.1,0,.2-.03.3-.04,2.46-.3,4.94-.44,7.43-.44h32.44s5.09-.32,9.96,1.36c2.49,1.25,4.69,2.99,6.56,5.09,1.34,1.5,1.96,3.46,2.1,5.43.02.3.03.59.03.9Z"/>
        <path class="cls-6" d="M367.43,219.26c0,2.44-.72,4.77-1.68,6.16-5.65,8.09-18.64,7.85-26.12,2.02-1.39-1.09-5.22-5.66-7.5-7.48-1.78-1.43-4.2-1.81-6.44-1.95-.19,0-.37-.02-.56-.02-2.25-.1-4.48,0-6.73-.08-3.18-.1-6.42-.04-9.57.49-2.14.36-4.23.94-6.22,1.85-3.09,1.41-5.81,3.59-7.83,6.26-1.69,2.25-2.91,4.87-3.23,7.63-.49,4.22,1.31,8.02,4.35,10.97,2.53,2.46,5.61,4.5,8.26,6.4,2.09,1.44,2.58,4.24,1.1,6.25-1.48,2.02-4.37,2.49-6.46,1.06-3.1-2.03-6.66-4.26-9.66-6.94-2.34-2.09-4.31-4.47-5.66-7.17-3.95-7.84-2.7-15.78,1.22-22.4,1.41-2.39,3.19-4.58,5.21-6.51,2.01-1.91,4.26-3.59,6.68-4.98.93-.53,1.88-1.02,2.86-1.46,2.91-1.31,6.01-2.03,9.17-2.44.1,0,.2-.03.3-.04,2.46-.3,4.94-.44,7.43-.44h32.44s5.09-.32,9.96,1.36c2.49,1.25,4.69,2.99,6.56,5.09,1.34,1.5,1.96,3.46,2.1,5.43.02.3.03.59.03.9Z"/>
        <path class="cls-6" d="M312.89,450.2l8.19-.78c0,.64-.02,1.27-.04,1.9-.03,1.68-.06,3.36-.09,5.04v.21c-.04,2.06-.08,4.1-.11,6.16-.04,1.9-.07,3.8-.11,5.69-.03,1.65-.06,3.29-.09,4.94-.02,1.39-.05,2.77-.08,4.16-.02,1.1-.04,2.21-.06,3.32,0,.36,0,.71-.02,1.08v.04c-.05.7-.44,3.32-3.51,3.32-3.49,0-3.51-3.42-3.51-3.49-.02-.88-.03-1.76-.05-2.64-.02-1.24-.05-2.47-.07-3.7-.03-1.5-.05-3-.08-4.5-.03-1.74-.07-3.48-.1-5.23-.03-1.97-.07-3.95-.11-5.92,0-.34,0-.68-.02-1.02h0c-.03-1.63-.06-3.25-.09-4.86,0-.23,0-.47,0-.69-.02-1.01-.04-2.01-.06-3.02Z"/>
        <path class="cls-6" d="M322.2,379.92c-.04,2.35-.08,4.7-.13,7.05,0,.87-.03,1.74-.05,2.61-.02.86-.03,1.72-.05,2.58-.04,2.42-.09,4.84-.13,7.25-.05,3.16-.11,6.32-.17,9.48-.04,2.12-.08,4.25-.11,6.38-.02.9-.04,1.81-.05,2.71-.04,3.24-.11,6.5-.23,9.73-.04,1.19-.24,2.41-.68,3.54-.64,1.67-1.85,3.23-3.25,4.38-.66.54-1.4.97-2.27,1.02-.61.03-1.25-.14-1.66-.57-.5-.52-.57-1.29-.61-2-.02-.34-.04-.67-.06-1.01-.21-3.3-.16-6.62-.23-9.93-.06-2.9-.11-5.8-.16-8.69-.06-3.03-.12-6.06-.17-9.09-.05-2.77-.11-5.54-.16-8.3,0-.39,0-.77-.02-1.16-.03-1.64-.06-3.27-.09-4.9-.03-1.63-.06-3.25-.09-4.87,0-.51-.02-1.03-.03-1.54.44-.21.9-.41,1.36-.6,2.42-1,5.89-2.37,9.02-4.06Z"/>
        <path class="cls-6" d="M323.56,304.23v.18c-.06,3.26-.12,6.53-.18,9.79,0,.34,0,.69-.02,1.03-.02,1.48-.05,2.97-.08,4.45-.04,2.14-.08,4.28-.12,6.42-.06,3.63-.13,7.25-.19,10.87-.07,3.61-.14,7.21-.2,10.82-.03,1.68-.06,3.34-.09,5.02-.04,1.9-.07,3.81-.11,5.7-.03,2.02-.07,4.04-.11,6.05-.03,1.5-.05,3.02-.08,4.52-.01.78.02,1.57-.08,2.35-.09.72-.35,1.42-.72,2.06-.12.2-.24.39-.38.57-.43.58-.96,1.1-1.53,1.55-1.74,1.37-3.91,2.38-6.2,2.07-.38-.05-.76-.15-1.09-.36-.27-.17-.49-.42-.61-.71-.11-.27-.08-.56-.11-.85-.07-.8-.03-1.62-.04-2.43-.05-2.52-.1-5.03-.14-7.55-.06-3.48-.13-6.97-.19-10.45-.07-3.52-.13-7.05-.2-10.57-.06-3.55-.13-7.11-.19-10.66-.05-2.74-.1-5.47-.15-8.21-.02-.83-.03-1.66-.05-2.48-.02-.99-.04-1.98-.06-2.98-.04-2.57-.09-5.14-.14-7.71,0-.2,0-.41,0-.61,4.26-2.19,8.84-4.38,12.89-7.76.05-.05.11-.09.16-.13Z"/>
        <path class="cls-6" d="M325.33,206.47c-.02,1.06-.04,2.12-.06,3.18-.04,2.54-.09,5.08-.14,7.63,0,.22,0,.44,0,.66-.02,1.17-.03,2.34-.05,3.52-.05,1.31-.06,2.66-.09,4-.05,2.89-.1,5.78-.15,8.67-.06,3.04-.12,6.07-.17,9.11-.06,3.17-.12,6.33-.17,9.5-.06,3.28-.12,6.57-.18,9.84-.04,2.16-.09,4.31-.12,6.46-.03,1.23-.05,2.46-.07,3.68-.02,1.27-.05,2.53-.07,3.81-.04,2.19-.08,4.38-.12,6.58-.06,3.52-.13,7.05-.19,10.57-.01.95-.03,1.89-.05,2.83-.01.65-.28,1.28-.76,1.75-.82.81-1.73,1.64-2.77,2.51-1.81,1.5-3.8,2.78-5.85,3.93-1.75.99-3.95-.19-3.99-2.14,0-.15,0-.3,0-.45-.07-3.51-.13-7.02-.2-10.53-.06-3.46-.12-6.92-.19-10.37-.06-3.4-.12-6.79-.18-10.17-.07-3.31-.13-6.62-.19-9.94,0-.34,0-.69-.02-1.03-.05-2.86-.11-5.74-.16-8.61,0-.49-.02-.97-.03-1.47-.04-2.61-.09-5.22-.14-7.83-.05-2.97-.11-5.94-.16-8.92-.05-2.83-.1-5.65-.16-8.48,0-.5-.02-1.02-.03-1.52-.03-1.61-.06-3.22-.08-4.83,0-.55-.02-1.1-.03-1.66-.02-1.21-.05-2.42-.07-3.63,0-.12,0-.26,0-.38,0-.16,0-.32,0-.49,0-.02,0-.04,0-.06-.02-.98-.03-1.95-.05-2.93,0-.77-.03-1.55-.04-2.32h0c2.56-.33,5.13-.48,7.72-.48h8.99Z"/>
        <path class="cls-6" d="M345.75,122.63c-3.24-3.38-10.57-3.75-10.73,2.77-.15,5.4,5.12,2.87,5.41,5.77.66,6.37-8.23,11.73-13.15,6.5-1.38-1.46-2.02-3.3-2.2-5.25-.59-6.61,5.35-9.91,7.32-15.61,1.96-5.67-.97-10.5-4.51-14.83-1.96-2.4-3.82-4.85-5.9-7.16-.35-.39-4.26-4.71-4.74-4.98-.48.27-4.4,4.6-4.74,4.98-2.08,2.32-3.94,4.76-5.9,7.16-3.53,4.33-6.47,9.16-4.51,14.83,1.97,5.7,7.91,8.99,7.32,15.61-.17,1.95-.82,3.79-2.2,5.25-4.92,5.23-13.8-.13-13.15-6.5.29-2.9,5.56-.38,5.41-5.77-.16-6.52-7.49-6.15-10.73-2.77-4.22,4.4-3.93,11.73-1.5,16.89,1.3,2.78,3.32,5.09,5.13,7.55,3.46,4.7,7.25,9.16,10.41,14.06,1.19,1.85,2.29,3.75,3.22,5.75.82,1.72,1.54,3.56,1.96,5.44.46,1.94.38,3.78.42,5.75.01,1.11.04,2.23.05,3.34.03,1.39.05,2.76.08,4.15.03,1.63.05,3.26.09,4.89.03,1.88.07,3.75.09,5.63.04,2.02.08,4.05.12,6.08,2.49-.3,5.13-.45,7.81-.45h1.21c2.68,0,5.32.16,7.81.45.04-2.03.08-4.06.12-6.08.03-1.88.07-3.75.09-5.63.04-1.63.07-3.26.09-4.89.03-1.4.05-2.77.08-4.15.01-1.11.04-2.23.05-3.34.04-1.97-.04-3.81.42-5.75.42-1.88,1.14-3.71,1.96-5.44.92-1.99,2.02-3.9,3.22-5.75,3.16-4.89,6.95-9.36,10.41-14.06,1.81-2.46,3.83-4.76,5.13-7.55,2.43-5.16,2.72-12.49-1.5-16.89Z"/>
        <path class="cls-9" d="M407.8,326.54s0-.03,0-.04c.06-.21.12-.43.17-.64-.11.43-.23.85-.38,1.26.06-.19.13-.39.2-.58ZM407.28,316.92s0,0-.02,0c0,.02,0,.03.02.05.32.82.6,1.66.79,2.53-.19-.88-.47-1.74-.79-2.57Z"/>
        <path class="cls-12" d="M424.76,594.19c0,8.87-7.38,16.06-16.52,16.17-.08.01-.15.01-.23.01-3.44,0-6.65-1.01-9.31-2.73-4.49-2.9-7.44-7.83-7.44-13.45s2.95-10.55,7.44-13.45c2.67-1.72,5.87-2.73,9.31-2.73.08,0,.15,0,.23.01,9.14.1,16.52,7.31,16.52,16.17Z"/>
        <path class="cls-10" d="M407.9,326.1c-.09.34-.19.68-.3,1.01.06-.19.13-.39.2-.58,0-.02,0-.03,0-.04.06-.21.12-.43.17-.64s.1-.42.14-.63c-.06.3-.14.59-.22.88Z"/>
        <path class="cls-8" d="M547.44,324.69c-5.9-32.79-30.84-76.41-78.47-137.28-10.02-12.8-27.26-34.99-47.21-60.67-36.07-46.43-80.96-104.23-95.84-122.73-.06-.1-.14-.16-.22-.25-.09-.1-.17-.22-.28-.31-.16-.18-.32-.35-.5-.51l-.23-.24c-.21-.18-.41-.35-.62-.51-.04-.03-.06-.06-.09-.08-.05-.03-.08-.05-.13-.09-.21-.16-.44-.31-.68-.45-.08-.05-.16-.1-.24-.16-.23-.13-.44-.24-.66-.35-.12-.05-.23-.11-.34-.17-.19-.1-.39-.17-.6-.24-.14-.06-.29-.13-.44-.18-.17-.05-.33-.1-.52-.16-.17-.05-.34-.09-.51-.14-.17-.03-.33-.06-.5-.1-.17-.03-.36-.05-.55-.09-.17-.02-.33.03-.5.03-.19-.03-.36.02-.55.02h-1.05c-.18,0-.36-.04-.54-.02-.16,0-.32,0-.5,0-.18.03-.36.04-.55.07-.16.03-.32.07-.49.09-.17.05-.33.08-.52.13-.17.05-.34.1-.51.15-.16.05-.31.13-.46.19-.18.06-.39.14-.59.23-.11.05-.23.11-.33.16-.22.11-.44.22-.66.35-.08.05-.16.1-.25.16-.23.14-.45.3-.67.45-.05.03-.08.05-.13.09-.04.02-.06.04-.1.08-.22.16-.41.32-.62.51l-.24.24c-.17.16-.32.32-.49.51-.1.09-.19.21-.29.31-.06.1-.14.16-.21.25-14.88,18.5-59.75,76.3-95.84,122.73-19.94,25.68-37.18,47.86-47.19,60.67-47.64,60.87-72.59,104.49-78.5,137.28-4.09,22.69-3.75,43.02,1.05,62.1,4.84,19.27,14.2,37.31,28.65,55.13,6.38,7.88,14.03,13.65,21.44,19.23,7.71,5.81,14.98,11.29,19.81,18.53,5.55,8.31,9.01,30.77,9.01,59.64,0,55.85,29.88,64.72,47.71,64.72h94.18c13.04,0,23.93-9.13,24.73-21.7.33-5.27.97-10.23,1.99-15.43.14-.67.27-1.18.4-1.86,2.21-10.54,14.18-17.11,18.59-19.42.14-.06.28-.07.42-.15,17.84-8.34,31.66-24.51,41.1-48.12,1.8-4.51.99-9.41-1.82-13.09,16.22-43.18,20.06-55.05,35.04-101.34l2.33-7.21c5.32-16.47,4.3-30.51-3.02-41.78-5.66-8.67-13.76-13.89-21.35-17.02.32.83.6,1.69.79,2.57-.2-.86-.48-1.71-.79-2.53,0-.02-.02-.15-.02-.17-2.24-5.64-8.01-9.75-14.61-9.75h-17.67c-8.52,0-14.03,6.89-14.03,15.12v.37c0,8.23,5.51,14.51,14.03,14.51h17.67c4.75,0,9.13-1.87,11.96-5.14.03-.03.06.12.08.08,4.14,2.2,8.14,5.38,10.98,9.76,4.82,7.4,5.24,17.37,1.33,29.49l-2.34,7.22c-15.2,47-18.81,58.15-34.84,100.76-2.57.62-4.99,1.98-6.89,4.01-1.35,1.45-2.32,3.12-2.9,4.88-.52,1.6-1.06,3.23-1.75,4.78-4.02,8.78-8.48,15.19-13.06,19.89-.4.43-.81.83-1.22,1.23-.04.03-.08.05-.12.1-3.1,2.79-11.71,9.25-27.02,11.27-2.95.39-6.16.61-9.63.61s-6.67-.22-9.62-.61c-15.31-2.02-23.93-8.48-27.02-11.27-.05-.04-.08-.07-.13-.1-.4-.4-.81-.8-1.22-1.23-4.57-4.7-9.03-11.13-13.05-19.91-.69-1.53-1.24-3.16-1.76-4.76-.57-1.76-1.52-3.43-2.89-4.88-1.89-2.03-4.3-3.38-6.89-4-16.03-42.61-19.62-53.74-34.81-100.74l-2.33-7.2c-3.93-12.12-3.46-22.03,1.36-29.43,3.03-4.64,7.41-8.07,11.81-10.27,2.85,3.46,7.23,5.45,12.12,5.45h17.67c8.52,0,15.46-6.29,15.46-14.51v-.37c0-8.23-6.95-15.12-15.46-15.12h-17.67c-6.42,0-11.97,3.92-14.31,9.33-7.9,3.08-16.68,8.41-22.63,17.53-7.33,11.26-8.36,25.33-3.02,41.8l2.32,7.23c14.98,46.29,18.81,58.16,35.04,101.34-2.82,3.68-3.62,8.6-1.82,13.1,9.45,23.61,23.26,39.8,41.1,48.14.14.08.28.13.42.19,4.42,2.32,16.39,8.96,18.58,19.5.88,4.17,1.52,8.24,2,12.08.44,3.62-2.51,6.75-6.26,6.75h-78.98c-6.51-2-26.31-.6-26.31-44.14,0-8.94-.35-22.4-1.99-35.79-2.04-16.63-5.48-28.38-10.52-35.93-6.85-10.23-15.94-17.11-24.74-23.75-6.67-5-12.95-9.74-17.67-15.58-24.6-30.35-32.42-61.36-25.35-100.53,5.21-28.94,29.54-70.86,74.38-128.14,10.02-12.83,27.27-35.03,47.24-60.73,30.56-39.34,67.47-86.83,86.96-111.56,19.52,24.73,56.4,72.22,86.97,111.56,19.97,25.7,37.21,47.91,47.24,60.74,44.85,57.28,69.16,99.2,74.4,128.14,7.06,39.17-.77,70.18-25.36,100.53-4.73,5.84-11.02,10.58-17.66,15.58-8.81,6.64-17.92,13.52-24.75,23.75-5.04,7.55-8.5,19.32-10.52,35.95-1.63,13.39-1.99,26.87-1.99,35.82,0,14.03-2.05,23.59-5.04,30.1-7.51-9.41-19.3-15.5-32.53-15.5-3.59,0-7.06.45-10.39,1.3-9.46,2.38-17.59,7.96-23.1,15.46-4.76,6.46-7.54,14.36-7.54,22.87s2.79,16.41,7.54,22.88c5.51,7.5,13.64,13.08,23.1,15.46,3.33.85,6.79,1.3,10.39,1.3,22.49,0,40.79-17.55,41.04-39.2,10.31-9.09,18.47-25.5,18.47-54.68s3.45-51.97,9-60.27c4.84-7.24,12.11-12.72,19.81-18.53,7.41-5.58,15.06-11.35,21.44-19.23,14.44-17.82,23.81-35.86,28.65-55.13,4.8-19.09,5.13-39.42,1.03-62.1ZM407.8,326.54c-.04.14-.1.27-.14.4.09-.28.17-.55.25-.83-.04.13-.06.26-.1.39,0,.02,0,.03,0,.04ZM430.57,603.98c-1.63,3.5-4.11,6.55-7.18,8.89-4.22,3.27-9.56,5.2-15.38,5.2-2.69,0-5.29-.41-7.71-1.2-3.62-1.13-6.86-3.08-9.53-5.59-4.61-4.32-7.47-10.4-7.47-17.09s2.86-12.76,7.47-17.08c2.67-2.51,5.91-4.45,9.53-5.59,2.43-.79,5.03-1.2,7.71-1.2,5.82,0,11.19,1.95,15.41,5.21,2.37,1.82,4.39,4.06,5.93,6.6,2.17,3.54,3.4,7.67,3.4,12.06,0,3.49-.78,6.8-2.17,9.79Z"/>
        <path class="cls-7" d="M408.12,325.23c-.05.21-.09.42-.14.63s-.11.43-.17.64c0,.02,0,.03,0,.04-.07.19-.14.39-.2.58.12-.34.21-.67.3-1.01.08-.29.16-.58.22-.88Z"/>
      </g>
      <path class="cls-13" d="M74.47,576.7c9.24,0,17.44,1.12,24.57,3.36,7.13,2.24,13.36,5.19,18.69,8.86,5.32,3.67,9.75,7.88,13.27,12.62,3.51,4.74,6.48,9.53,8.89,14.36,5.43,11.46,8.54,24.52,9.35,39.19v6.17c-.81,14.68-3.92,27.74-9.35,39.19-2.41,4.83-5.38,9.62-8.89,14.36-3.52,4.74-7.94,8.95-13.27,12.62-5.33,3.67-11.56,6.62-18.69,8.86-7.14,2.24-15.33,3.36-24.57,3.36s-17.69-1.12-24.72-3.36c-7.04-2.24-13.17-5.19-18.39-8.86-5.23-3.67-9.6-7.87-13.12-12.62-3.52-4.74-6.48-9.53-8.89-14.36-5.43-11.45-8.55-24.52-9.35-39.19v-6.17c.8-14.67,3.92-27.74,9.35-39.19,2.41-4.83,5.38-9.62,8.89-14.36,3.51-4.74,7.89-8.95,13.12-12.62,5.22-3.67,11.35-6.62,18.39-8.86,7.03-2.24,15.27-3.36,24.72-3.36ZM115.17,643.01c-.41-10.02-2.11-19.06-5.13-27.11-1.21-3.4-2.82-6.71-4.82-9.93-2.01-3.22-4.48-6.08-7.39-8.59-2.92-2.5-6.28-4.56-10.1-6.17-3.82-1.61-8.24-2.42-13.27-2.42s-9.75.8-13.57,2.42c-3.82,1.61-7.14,3.67-9.95,6.17-2.82,2.51-5.23,5.37-7.24,8.59-2.01,3.22-3.62,6.54-4.82,9.93-3.02,8.05-4.73,17.09-5.13,27.11v30.33c.4,10.2,2.11,19.24,5.13,27.11,1.21,3.4,2.81,6.71,4.82,9.93,2.01,3.22,4.42,6.13,7.24,8.72,2.81,2.6,6.13,4.66,9.95,6.17,3.82,1.52,8.34,2.28,13.57,2.28s9.45-.76,13.27-2.28c3.82-1.52,7.18-3.58,10.1-6.17,2.91-2.59,5.38-5.5,7.39-8.72,2.01-3.22,3.62-6.53,4.82-9.93,3.02-7.87,4.72-16.91,5.13-27.11v-30.33Z"/>
      <path class="cls-13" d="M282.65,675.36c-1.51-4.56-3.57-8.5-6.18-11.81-2.61-3.31-5.53-6.13-8.74-8.46-3.22-2.32-6.54-4.29-9.95-5.9-8.05-3.4-16.87-5.46-26.92-6.18l-26.9,12.08v-12.04h-41v12h13v145h0v12h28v-72.39c15-.36,28.41-2.33,40.47-5.91,5.02-1.43,9.89-3.31,14.81-5.64,4.93-2.32,9.24-5.23,13.06-8.72,3.81-3.49,6.85-7.52,9.16-12.08,2.31-4.56,3.46-9.89,3.46-15.97s-.76-11.41-2.27-15.98ZM255.52,703.42c-1.51,3.4-3.58,6.35-6.19,8.85-2.61,2.51-5.53,4.66-8.74,6.45-3.22,1.79-6.3,3.22-9.73,4.29-8.04,2.69-16.9,4.21-26.9,4.57v-60.41l26.9-12.08c5.02.37,9.44,1.88,13.46,4.57,3.41,2.33,6.47,5.9,9.29,10.74,2.81,4.83,4.19,11.81,4.19,20.94,0,4.65-.79,8.68-2.29,12.08Z"/>
      <polygon class="cls-13" points="203.96 749.05 203.96 812.05 162.96 812.05 162.96 799.05 175.96 799.05 175.96 749.05 203.96 749.05"/>
      <path class="cls-13" d="M365.72,739.66h-6.63c-6.84,0-12.81-.67-17.94-2.01-5.13-1.34-9.65-3.17-13.57-5.5-3.92-2.32-7.19-4.92-9.8-7.79-2.61-2.86-4.73-5.81-6.33-8.86-4.02-7.16-6.23-15.21-6.63-24.16v-42.15h-13.57v-12.08h13.57v-24.16l27.13-12.08v36.24h33.77v12.08h-33.77v48.32c.2,5.55,1.31,10.56,3.32,15.03,1.61,3.76,4.27,7.21,7.99,10.34,3.72,3.13,8.99,4.7,15.83,4.7h6.63v12.08Z"/>
      <path class="cls-13" d="M420.96,728.05v-85h-41v12h13v73h-13v12h54v-12h-13Z"/>
      <path class="cls-13" d="M664.5,727.58v12.08h-54.27v-12.08h13.57v-36.24c0-9.13-1.41-16.11-4.22-20.94-2.82-4.83-5.93-8.41-9.35-10.74-4.02-2.68-8.55-4.2-13.57-4.56l-27.14,12.08v60.4h13.57v12.08h-54.27v-12.08h13.57v-36.24c0-9.13-1.41-16.11-4.22-20.94-2.82-4.83-5.93-8.41-9.35-10.74-4.02-2.68-8.55-4.2-13.57-4.56l-27.13,12.08v60.4h13.57v12.08h-54.27v-12.08h13.57v-72.48h-13.57v-12.08h40.7v12.08l27.13-12.08c5.02.18,10.15.9,15.38,2.15,4.42,1.07,9.09,2.82,14.02,5.24,4.92,2.42,9.39,5.77,13.42,10.07l38.59-17.45c10.05.72,19.09,2.78,27.13,6.17,3.42,1.61,6.73,3.58,9.95,5.91,3.21,2.33,6.13,5.15,8.74,8.46,2.61,3.31,4.67,7.25,6.18,11.81,1.51,4.56,2.26,9.89,2.26,15.97v36.24h13.57Z"/>
      <path class="cls-13" d="M792.93,727.58v12.08h-40.7v-12.08l-27.13,12.08c-10.05-.36-19.1-2.32-27.13-5.91-3.42-1.43-6.74-3.31-9.95-5.64-3.22-2.32-6.13-5.23-8.74-8.72-2.61-3.49-4.67-7.52-6.18-12.08s-2.26-9.89-2.26-15.97,1.15-11.41,3.47-15.97c2.31-4.56,5.38-8.5,9.2-11.81,3.82-3.31,8.14-6.13,12.96-8.46,4.82-2.32,9.85-4.29,15.07-5.91,11.86-3.4,25.42-5.46,40.7-6.17l27.13,12.08v72.48h13.57ZM752.23,655.09c-10.05.36-19.1,1.88-27.13,4.56-3.42,1.07-6.74,2.51-9.95,4.29-3.22,1.79-6.13,3.98-8.74,6.58-2.61,2.6-4.67,5.6-6.18,8.99-1.51,3.4-2.26,7.34-2.26,11.81,0,9.13,1.4,16.11,4.22,20.94,2.81,4.83,5.93,8.42,9.35,10.74,3.82,2.68,8.34,4.21,13.57,4.56l27.13-12.08v-60.4Z"/>
      <text class="cls-14" transform="translate(255.88 812.05)"><tspan x="0" y="0">medical</tspan></text>
    </g>
  </g>
</svg>